<?xml version="1.0" encoding="utf-8"?>
<!-- Generator: Adobe Illustrator 19.2.1, SVG Export Plug-In . SVG Version: 6.00 Build 0)  -->
<svg version="1.1" id="Layer_1" xmlns="http://www.w3.org/2000/svg" xmlns:xlink="http://www.w3.org/1999/xlink" x="0px" y="0px"
	 viewBox="0 0 96.4 85" enable-background="new 0 0 96.4 85" xml:space="preserve">
<path fill="#FFFFFF" d="M48.2,82.1c-21.8,0-39.6-17.7-39.5-39.6C8.7,20.6,26.4,3,48.2,3c21.8,0,39.5,17.8,39.5,39.6
	C87.7,64.4,70,82.1,48.2,82.1z M23.9,65.1c8.7-8.7,17.4-17.4,26.3-26.3c-1.8-1.3-3.6-2.7-5.5-4c-1.2-0.8-1.7-0.7-2.8,0.2
	c-1,0.9-2.1,1.7-3.2,2.4c-0.4,0.3-1.1,0.3-1.6,0.1c-2.7-1.1-5.4-2.2-8.1-3.4c-0.5-0.2-1-0.6-1.3-1.1c-0.7-1.1-0.4-4.2,0.5-5.2
	c2.6-2.9,5.8-4.4,9.7-4.1c3.5,0.3,6.5,1.8,9.3,3.8c2.8,2,5.4,4.1,8.1,6.1c5.1-5.1,10.3-10.3,15.5-15.5c-12-11.5-32.3-12.6-45.7,0.4
	C11.4,32,12.1,52.8,23.9,65.1z M54.4,44.3c-8.5,8.5-17,17-25.3,25.3C42,79,60.9,77.8,72.6,65c11.8-12.8,10.8-30.9,2.6-41.6
	C70,28.6,64.8,33.8,59.5,39c2.1,2.8,3.6,6,4.8,9.4c1,2.9,2,5.8,1.6,9c-0.5,3.6-3,8.1-8.4,8.2c-0.9,0-1.6-0.1-2-1
	c-1.3-2.7-2.6-5.4-3.8-8.1c-0.6-1.3-0.4-1.6,0.7-2.5c1.2-0.9,2.4-1.9,3.6-2.9c0.7-0.5,1-1.2,0.7-2C56,47.5,55.2,45.9,54.4,44.3z"/>
</svg>
