<?xml version="1.0" encoding="utf-8"?>
<!-- Generator: Adobe Illustrator 19.2.1, SVG Export Plug-In . SVG Version: 6.00 Build 0)  -->
<svg version="1.1" id="Layer_1" xmlns="http://www.w3.org/2000/svg" xmlns:xlink="http://www.w3.org/1999/xlink" x="0px" y="0px"
	 viewBox="0 0 96.4 85" enable-background="new 0 0 96.4 85" xml:space="preserve">
<g>
	<path fill="#FFFFFF" d="M87.7,42.5c0,21.8-17.7,39.6-39.6,39.6c-21.8,0-39.5-17.8-39.5-39.6C8.7,20.6,26.4,2.9,48.3,3
		C70,3,87.7,20.7,87.7,42.5z M81.4,42.5c0-18.3-14.9-33.2-33.2-33.2C29.9,9.3,15,24.2,15,42.4c0,18.4,14.8,33.4,33.2,33.4
		C66.5,75.7,81.4,60.8,81.4,42.5z"/>
	<path fill="#FFFFFF" d="M34.8,21.7c1.7-0.4,2.6,0.6,3.3,2.2c1,2.4,2,4.8,3,7.3c0.2,0.5,0.2,1.2,0,1.7c-0.7,1.2-1.6,2.3-2.4,3.3
		c-0.9,1.1-1,1.5-0.2,2.7c3.3,5.6,8,9.6,14.1,12c0.9,0.4,1.7,0.3,2.3-0.5c1-1.2,2-2.4,2.9-3.6c0.9-1.2,1.2-1.3,2.5-0.7
		c2.7,1.3,5.5,2.6,8.2,3.9c0.8,0.4,1,1.1,0.9,1.9c-0.3,4.9-4.1,8.3-9.3,8.5c-2.8,0.1-5.4-0.9-8-1.7c-8.7-2.8-15-8.7-20.1-16.1
		c-1.9-2.7-3.6-5.4-4.3-8.7c-0.9-4.4,0.4-8.2,3.7-11.2C32.2,21.7,33.4,21.6,34.8,21.7z"/>
</g>
</svg>
